HIERARCHY
ROOT Hips
{
  OFFSET 5.72205e-005 65.662 3.42586
  CHANNELS 6 Xposition Yposition Zposition Zrotation Xrotation Yrotation
  JOINT Chest
  {
    OFFSET 0 8.7983 -4.7612
    CHANNELS 3 Zrotation Xrotation Yrotation
    JOINT Chest2
    {
      OFFSET 0 8.0291 0.4195
      CHANNELS 3 Zrotation Xrotation Yrotation
      JOINT Chest3
      {
        OFFSET 0 9.9351 -2.2114
        CHANNELS 3 Zrotation Xrotation Yrotation
        JOINT Neck
        {
          OFFSET 0 22.3885 -0.4656
          CHANNELS 3 Zrotation Xrotation Yrotation
          JOINT Head
          {
            OFFSET -0.0001 12.643 3.4389
            CHANNELS 3 Zrotation Xrotation Yrotation
            End Site
            {
              OFFSET 0.0001 17.6655 0.5274
            }
          }
        }
        JOINT LeftCollar
        {
          OFFSET 2.2603 21.606 7.4023
          CHANNELS 3 Zrotation Xrotation Yrotation
          JOINT LeftShoulder
          {
            OFFSET 13.5163 -1.1332 -5.0146
            CHANNELS 3 Zrotation Xrotation Yrotation
            JOINT LeftElbow
            {
              OFFSET -0.0995 -28.05 -0.2431
              CHANNELS 3 Zrotation Xrotation Yrotation
              JOINT LeftWrist
              {
                OFFSET 0.0679 -23.3996 -0.1402
                CHANNELS 3 Zrotation Xrotation Yrotation
                JOINT LeftFinger1
                {
                  OFFSET 0.7932 -9.069 2.5189
                  CHANNELS 3 Zrotation Xrotation Yrotation
                  JOINT LeftFinger11
                  {
                    OFFSET -0.8272 -3.3923 0.5977
                    CHANNELS 3 Zrotation Xrotation Yrotation
                    JOINT LeftFinger12
                    {
                      OFFSET -0.5649 -2.3158 0.4082
                      CHANNELS 3 Zrotation Xrotation Yrotation
                      End Site
                      {
                        OFFSET -0.4919 -1.6479 0.2673
                      }
                    }
                  }
                }
                JOINT LeftFinger2
                {
                  OFFSET 0.9159 -9.2044 0.2193
                  CHANNELS 3 Zrotation Xrotation Yrotation
                  JOINT LeftFinger21
                  {
                    OFFSET 0.0117 -4.1944 -0.0248
                    CHANNELS 3 Zrotation Xrotation Yrotation
                    JOINT LeftFinger22
                    {
                      OFFSET 0.0071 -2.3249 -0.0142
                      CHANNELS 3 Zrotation Xrotation Yrotation
                      End Site
                      {
                        OFFSET -0.1475 -2.0882 0.0028
                      }
                    }
                  }
                }
                JOINT LeftFinger3
                {
                  OFFSET 0.6113 -8.7231 -2.0637
                  CHANNELS 3 Zrotation Xrotation Yrotation
                  JOINT LeftFinger31
                  {
                    OFFSET -0.1927 -3.8059 -0.2383
                    CHANNELS 3 Zrotation Xrotation Yrotation
                    JOINT LeftFinger32
                    {
                      OFFSET -0.1091 -2.1688 -0.1362
                      CHANNELS 3 Zrotation Xrotation Yrotation
                      End Site
                      {
                        OFFSET -0.2358 -1.9176 -0.0906
                      }
                    }
                  }
                }
                JOINT LeftFinger4
                {
                  OFFSET -0.6151 -8.0947 -3.5641
                  CHANNELS 3 Zrotation Xrotation Yrotation
                  JOINT LeftFinger41
                  {
                    OFFSET -0.4882 -2.341 -0.6462
                    CHANNELS 3 Zrotation Xrotation Yrotation
                    JOINT LeftFinger42
                    {
                      OFFSET -0.3575 -1.7167 -0.4742
                      CHANNELS 3 Zrotation Xrotation Yrotation
                      End Site
                      {
                        OFFSET -0.4187 -1.5237 -0.3496
                      }
                    }
                  }
                }
                JOINT LeftFinger0
                {
                  OFFSET -1.42 -1.8761 1.4223
                  CHANNELS 3 Zrotation Xrotation Yrotation
                  JOINT LeftFinger01
                  {
                    OFFSET -1.1471 -3.4929 2.6334
                    CHANNELS 3 Zrotation Xrotation Yrotation
                    JOINT LeftFinger02
                    {
                      OFFSET -0.823 -2.3 1.6571
                      CHANNELS 3 Zrotation Xrotation Yrotation
                      End Site
                      {
                        OFFSET -0.5822 -1.6914 1.1582
                      }
                    }
                  }
                }
              }
            }
          }
        }
        JOINT RightCollar
        {
          OFFSET -2.2603 21.606 7.4023
          CHANNELS 3 Zrotation Xrotation Yrotation
          JOINT RightShoulder
          {
            OFFSET -13.5187 -1.1334 -5.0155
            CHANNELS 3 Zrotation Xrotation Yrotation
            JOINT RightElbow
            {
              OFFSET 0.0994 -28.0499 -0.2431
              CHANNELS 3 Zrotation Xrotation Yrotation
              JOINT RightWrist
              {
                OFFSET -0.0679 -23.3996 -0.1402
                CHANNELS 3 Zrotation Xrotation Yrotation
                JOINT RightFinger1
                {
                  OFFSET -0.7932 -9.0691 2.5189
                  CHANNELS 3 Zrotation Xrotation Yrotation
                  JOINT RightFinger11
                  {
                    OFFSET 0.8272 -3.3923 0.5977
                    CHANNELS 3 Zrotation Xrotation Yrotation
                    JOINT RightFinger12
                    {
                      OFFSET 0.565 -2.3158 0.4082
                      CHANNELS 3 Zrotation Xrotation Yrotation
                      End Site
                      {
                        OFFSET 0.4919 -1.6479 0.2673
                      }
                    }
                  }
                }
                JOINT RightFinger2
                {
                  OFFSET -0.916 -9.2044 0.2193
                  CHANNELS 3 Zrotation Xrotation Yrotation
                  JOINT RightFinger21
                  {
                    OFFSET -0.0117 -4.1944 -0.0248
                    CHANNELS 3 Zrotation Xrotation Yrotation
                    JOINT RightFinger22
                    {
                      OFFSET -0.0071 -2.3249 -0.0142
                      CHANNELS 3 Zrotation Xrotation Yrotation
                      End Site
                      {
                        OFFSET 0.1475 -2.0882 0.0028
                      }
                    }
                  }
                }
                JOINT RightFinger3
                {
                  OFFSET -0.6113 -8.7231 -2.0637
                  CHANNELS 3 Zrotation Xrotation Yrotation
                  JOINT RightFinger31
                  {
                    OFFSET 0.1927 -3.8059 -0.2383
                    CHANNELS 3 Zrotation Xrotation Yrotation
                    JOINT RightFinger32
                    {
                      OFFSET 0.1091 -2.1688 -0.1362
                      CHANNELS 3 Zrotation Xrotation Yrotation
                      End Site
                      {
                        OFFSET 0.2358 -1.9176 -0.0906
                      }
                    }
                  }
                }
                JOINT RightFinger4
                {
                  OFFSET 0.6151 -8.0947 -3.564
                  CHANNELS 3 Zrotation Xrotation Yrotation
                  JOINT RightFinger41
                  {
                    OFFSET 0.4882 -2.341 -0.6462
                    CHANNELS 3 Zrotation Xrotation Yrotation
                    JOINT RightFinger42
                    {
                      OFFSET 0.3574 -1.7166 -0.4742
                      CHANNELS 3 Zrotation Xrotation Yrotation
                      End Site
                      {
                        OFFSET 0.4187 -1.5237 -0.3496
                      }
                    }
                  }
                }
                JOINT RightFinger0
                {
                  OFFSET 1.4199 -1.8761 1.4221
                  CHANNELS 3 Zrotation Xrotation Yrotation
                  JOINT RightFinger01
                  {
                    OFFSET 1.1472 -3.4929 2.6336
                    CHANNELS 3 Zrotation Xrotation Yrotation
                    JOINT RightFinger02
                    {
                      OFFSET 0.8229 -2.3 1.6571
                      CHANNELS 3 Zrotation Xrotation Yrotation
                      End Site
                      {
                        OFFSET 0.5822 -1.6914 1.1582
                      }
                    }
                  }
                }
              }
            }
          }
        }
      }
    }
  }
  JOINT RightHip
  {
    OFFSET -9.412 3.9771 -0.7758
    CHANNELS 3 Zrotation Xrotation Yrotation
    JOINT RightKnee
    {
      OFFSET -0.7531 -40.938 0
      CHANNELS 3 Zrotation Xrotation Yrotation
      JOINT RightAnkle
      {
        OFFSET 0 -40.1986 0
        CHANNELS 3 Zrotation Xrotation Yrotation
        JOINT RightToe
        {
          OFFSET 0 -4.4182 9.239
          CHANNELS 3 Zrotation Xrotation Yrotation
          End Site
          {
            OFFSET 0 0 6.1981
          }
        }
      }
    }
  }
  JOINT LeftHip
  {
    OFFSET 9.4119 3.9773 -0.7758
    CHANNELS 3 Zrotation Xrotation Yrotation
    JOINT LeftKnee
    {
      OFFSET 0.7532 -40.9383 0
      CHANNELS 3 Zrotation Xrotation Yrotation
      JOINT LeftAnkle
      {
        OFFSET 0 -40.1986 0
        CHANNELS 3 Zrotation Xrotation Yrotation
        JOINT LeftToe
        {
          OFFSET 0 -4.4182 9.239
          CHANNELS 3 Zrotation Xrotation Yrotation
          End Site
          {
            OFFSET 0 0 6.1981
          }
        }
      }
    }
  }
}
MOTION
Frames:	4
Frame Time:	0.0333333
5.72205e-005 65.662 3.42586 0 0 -0 0 0 -0 0 0 -0 0 0 -0 0 0 -0 0 0 -0 0 0 -12.5014 88.1196 14.2451 10.6914 -0.00160068 -0.00239207 0.000740045 -8.4365e-005 7.00714e-005 -9.52055e-007 9.93923e-017 -1.98785e-016 -1.59028e-015 9.93923e-017 -5.96354e-016 -1.59028e-015 -9.93923e-017 -5.96354e-016 -1.59028e-015 9.93923e-017 -1.98785e-016 -1.59028e-015 -0.0128176 0.00232552 8.52707e-005 9.93923e-017 5.96354e-016 -0 9.93923e-017 -1.98785e-016 -1.59028e-015 -0.0160551 0.00299681 0.000857156 -2.48481e-016 0 3.18055e-015 9.93923e-017 -1.98785e-016 -1.59028e-015 -0.0125865 0.0031206 0.00282719 0 1.98785e-016 -0 9.93923e-017 -1.98785e-016 -1.59028e-015 9.93923e-017 -5.96354e-016 -1.59028e-015 -9.93923e-017 -5.96354e-016 -1.59028e-015 -0.865644 0.16582 7.03859 -88.0329 10.2057 -10.5567 0.0015593 -0.00248883 -0.000788628 7.87605e-005 4.10553e-005 1.24965e-005 -3.97569e-016 -7.95139e-016 3.18055e-015 -1.98785e-016 -3.97569e-016 3.18055e-015 -1.98785e-016 0 3.18055e-015 -3.97569e-016 -7.95139e-016 3.18055e-015 0.0129473 0.00231697 -8.70038e-005 9.93923e-017 -7.95139e-016 1.59028e-015 -3.97569e-016 -7.95139e-016 3.18055e-015 0.0163314 0.00303369 -0.000872333 3.97569e-016 7.95139e-016 -3.18055e-015 -3.97569e-016 -7.95139e-016 3.18055e-015 0.0145763 0.00367772 -0.00326275 9.93923e-017 -3.97569e-016 -0 -3.97569e-016 -7.95139e-016 3.18055e-015 -1.98785e-016 -3.97569e-016 3.18055e-015 -1.98785e-016 0 3.18055e-015 3.42482 1.32465 -0.0626183 0.000117508 0.717283 0.000978199 -3.4257 -2.04197 -0.0604716 6.47761e-025 0 -0 -3.42483 1.34017 0.0627307 -0.000193936 0.682302 -0.0013703 3.42574 -2.02253 0.0595886 -8.45714e-024 0 -7.40531e-025 
39.8408 3.29455 26.5141 6.68241e-008 70.997 8.08067e-009 -0.323987 3.80841 -0.0468209 -0.646999 7.61702 -0.0722429 -0.647 7.61701 -0.072243 -4.87314e-006 -24.0062 -7.03754e-007 -0.0600577 -22.3427 -0.0243365 -8.00266 -0.194418 -12.5027 41.0906 -54.0593 46.1146 -162.624 -57.0654 154.779 -6.61579 1.42536 -7.33674 7.95139e-016 -3.57812e-015 -8.44835e-016 -2.32765e-032 -1.98785e-015 -6.70898e-016 -7.95139e-016 -3.97569e-016 -5.2181e-016 7.95139e-016 -3.57812e-015 -8.44835e-016 -0.0128194 0.00231436 8.56186e-005 -1.70007e-006 -4.46426e-008 7.30116e-008 7.95139e-016 -3.57812e-015 -8.44835e-016 -0.016041 0.00299661 0.000860308 -1.70006e-006 -4.46341e-008 7.29894e-008 7.95139e-016 -3.57812e-015 -8.44835e-016 -0.0126081 0.00313631 0.00283454 -0 0 1.26725e-015 7.95139e-016 -3.57812e-015 -8.44835e-016 -2.32765e-032 -1.98785e-015 -6.70898e-016 -7.95139e-016 -3.97569e-016 -5.2181e-016 7.13351 -0.028764 7.03348 -34.1401 -56.0263 -38.6238 166.972 -56.5747 -151.635 6.45462 1.28473 7.50888 7.95139e-016 1.59028e-015 -1.1281e-014 7.95139e-016 7.95139e-016 -1.11816e-014 1.59028e-015 3.18055e-015 -1.78906e-015 7.95139e-016 1.59028e-015 -1.1281e-014 0.0129575 0.00230325 -8.86261e-005 1.59028e-015 -1.59028e-015 -8.05078e-015 7.95139e-016 1.59028e-015 -1.1281e-014 0.0163013 0.00301283 -0.000861846 -7.95139e-016 -2.38542e-015 1.73937e-015 7.95139e-016 1.59028e-015 -1.1281e-014 0.0146017 0.00368134 -0.00327008 4.09827e-006 3.81085e-007 5.74819e-006 7.95139e-016 1.59028e-015 -1.1281e-014 7.95139e-016 7.95139e-016 -1.11816e-014 1.59028e-015 3.18055e-015 -1.78906e-015 -99.6518 -31.7082 -84.6417 177.037 41.7668 178.489 -6.1616 7.47441 -3.00915 -7.71144e-006 -1.43133e-006 -4.08022e-006 99.647 -31.7134 84.6377 -177.039 41.7665 -178.492 6.15961 7.47294 3.00572 1.73577e-005 2.61719e-006 -5.75817e-006 
39.8402 3.29157 26.4406 0 70.9971 -0 -0.324289 3.88617 -0.0467898 -0.647633 7.77253 -0.0717221 -0.647633 7.77253 -0.0717219 2.59426e-006 -24.5614 1.86241e-007 -0.0602527 -22.6759 -0.0247633 -7.80946 -0.822323 -12.1051 40.7565 -54.1802 45.8104 -162.624 -57.0654 154.779 -6.58622 1.73076 -7.03893 7.95139e-016 -7.95139e-016 -5.2181e-016 1.59028e-015 -1.19271e-015 -3.70236e-015 7.95139e-016 -3.97569e-016 -6.80837e-015 7.95139e-016 -7.95139e-016 -5.2181e-016 -0.0128159 0.00232014 8.03983e-005 -7.95139e-016 7.95139e-016 3.8763e-015 7.95139e-016 -7.95139e-016 -5.2181e-016 -0.0160584 0.00298595 0.000853358 1.34985e-006 -2.2852e-007 3.33464e-006 7.95139e-016 -7.95139e-016 -5.2181e-016 -0.0126048 0.00312398 0.00282408 2.82391e-006 -3.94492e-007 5.40213e-006 7.95139e-016 -7.95139e-016 -5.2181e-016 1.59028e-015 -1.19271e-015 -3.70236e-015 7.95139e-016 -3.97569e-016 -6.80837e-015 6.96421 -0.661794 6.60796 -33.7601 -56.117 -38.2677 166.972 -56.5748 -151.635 6.44554 1.58943 7.20611 -7.57261e-031 1.43125e-014 3.03147e-015 -7.95139e-016 1.27222e-014 1.2424e-015 -7.95139e-016 1.27222e-014 -8.94531e-016 -7.57261e-031 1.43125e-014 3.03147e-015 0.0129611 0.00231979 -7.58633e-005 -7.1726e-032 1.59028e-015 2.5842e-015 -7.57261e-031 1.43125e-014 3.03147e-015 0.0163287 0.00303404 -0.000871581 7.95139e-016 1.59028e-015 2.03754e-015 -7.57261e-031 1.43125e-014 3.03147e-015 0.0145375 0.00366272 -0.003249 -9.79335e-032 -1.59028e-015 -3.52843e-015 -7.57261e-031 1.43125e-014 3.03147e-015 -7.95139e-016 1.27222e-014 1.2424e-015 -7.95139e-016 1.27222e-014 -8.94531e-016 -99.8617 -31.5612 -84.7222 177.037 41.7636 178.497 -6.3568 7.54528 -2.86359 -3.57717e-006 -4.37113e-006 4.8842e-006 99.8609 -31.5732 84.7727 -177.039 41.7648 -178.499 6.33941 7.53358 2.92621 -1.47791e-005 1.13616e-007 7.8391e-006 
39.8396 3.2886 26.367 -2.23702e-007 70.9971 2.48774e-007 -0.324588 3.96393 -0.0467579 -0.64826 7.92804 -0.0711987 -0.648262 7.92808 -0.0711985 1.46546e-006 -25.1166 2.13771e-008 -0.060451 -23.0093 -0.0251932 -7.61172 -1.44919 -11.7051 40.4203 -54.3001 45.5041 -162.624 -57.0654 154.779 -6.55819 2.03632 -6.74115 7.95139e-016 -3.97569e-016 -2.06239e-015 3.0502e-006 -2.30906e-007 3.27575e-006 1.70078e-006 -9.95962e-008 -6.38038e-008 7.95139e-016 -3.97569e-016 -2.06239e-015 -0.0128172 0.00231653 8.85695e-005 6.80301e-006 4.30242e-006 -2.54939e-007 7.95139e-016 -3.97569e-016 -2.06239e-015 -0.0160383 0.0029945 0.000860458 -1.59028e-015 7.95139e-016 3.77691e-015 7.95139e-016 -3.97569e-016 -2.06239e-015 -0.0125936 0.0031159 0.00283757 -7.95139e-016 -7.95139e-016 2.31087e-015 7.95139e-016 -3.97569e-016 -2.06239e-015 3.0502e-006 -2.30906e-007 3.27575e-006 1.70078e-006 -9.95962e-008 -6.38038e-008 6.79003 -1.29389 6.18015 -33.3781 -56.2065 -37.9098 166.972 -56.5748 -151.635 6.4381 1.89428 6.90329 -3.03087e-006 -4.39265e-007 -5.59651e-006 7.95139e-016 -1.59028e-015 -4.42296e-015 2.38542e-015 -3.97569e-016 -1.44119e-015 -3.03087e-006 -4.39265e-007 -5.59651e-006 0.012947 0.00231077 -7.8899e-005 -4.22883e-006 -2.94794e-007 -4.13496e-006 -3.03087e-006 -4.39265e-007 -5.59651e-006 0.0163269 0.00304311 -0.000873075 -3.75566e-006 -1.25867e-005 6.01975e-006 -3.03087e-006 -4.39265e-007 -5.59651e-006 0.0145991 0.00368454 -0.00326713 7.95139e-016 -3.97569e-016 -2.08724e-015 -3.03087e-006 -4.39265e-007 -5.59651e-006 7.95139e-016 -1.59028e-015 -4.42296e-015 2.38542e-015 -3.97569e-016 -1.44119e-015 -100.071 -31.4137 -84.802 177.037 41.7604 178.506 -6.55222 7.61564 -2.71775 -1.44163e-005 2.80633e-006 1.00903e-005 100.074 -31.4324 84.9069 -177.039 41.7632 -178.506 6.51939 7.59404 2.84644 4.52995e-006 1.29851e-005 5.4297e-006 
